<svg width="30" height="37" viewBox="0 0 30 37" fill="none" xmlns="http://www.w3.org/2000/svg">
<g filter="url(#filter0_d_19_2363)">
<path d="M15 27.5C14.7083 27.5 14.4583 27.4167 14.25 27.25C14.0417 27.0833 13.8854 26.8646 13.7813 26.5938C13.3854 25.4271 12.8854 24.3333 12.2812 23.3125C11.6979 22.2917 10.875 21.0938 9.8125 19.7188C8.75 18.3438 7.88542 17.0312 7.21875 15.7812C6.57292 14.5312 6.25 13.0208 6.25 11.25C6.25 8.8125 7.09375 6.75 8.78125 5.0625C10.4896 3.35417 12.5625 2.5 15 2.5C17.4375 2.5 19.5 3.35417 21.1875 5.0625C22.8958 6.75 23.75 8.8125 23.75 11.25C23.75 13.1458 23.3854 14.7292 22.6563 16C21.9479 17.25 21.125 18.4896 20.1875 19.7188C19.0625 21.2188 18.2083 22.4688 17.625 23.4688C17.0625 24.4479 16.5938 25.4896 16.2188 26.5938C16.1146 26.8854 15.9479 27.1146 15.7188 27.2812C15.5104 27.4271 15.2708 27.5 15 27.5ZM15 14.375C15.875 14.375 16.6146 14.0729 17.2188 13.4688C17.8229 12.8646 18.125 12.125 18.125 11.25C18.125 10.375 17.8229 9.63542 17.2188 9.03125C16.6146 8.42708 15.875 8.125 15 8.125C14.125 8.125 13.3854 8.42708 12.7813 9.03125C12.1771 9.63542 11.875 10.375 11.875 11.25C11.875 12.125 12.1771 12.8646 12.7813 13.4688C13.3854 14.0729 14.125 14.375 15 14.375Z" fill="#00FF84"/>
</g>
<defs>
<filter id="filter0_d_19_2363" x="-5" y="-1" width="40" height="40" filterUnits="userSpaceOnUse" color-interpolation-filters="sRGB">
<feFlood flood-opacity="0" result="BackgroundImageFix"/>
<feColorMatrix in="SourceAlpha" type="matrix" values="0 0 0 0 0 0 0 0 0 0 0 0 0 0 0 0 0 0 127 0" result="hardAlpha"/>
<feMorphology radius="1" operator="dilate" in="SourceAlpha" result="effect1_dropShadow_19_2363"/>
<feOffset dy="4"/>
<feGaussianBlur stdDeviation="2"/>
<feColorMatrix type="matrix" values="0 0 0 0 0 0 0 0 0 0 0 0 0 0 0 0 0 0 0.48 0"/>
<feBlend mode="normal" in2="BackgroundImageFix" result="effect1_dropShadow_19_2363"/>
<feBlend mode="normal" in="SourceGraphic" in2="effect1_dropShadow_19_2363" result="shape"/>
</filter>
</defs>
</svg>
