<svg width="25" height="25" viewBox="0 0 25 25" fill="none" xmlns="http://www.w3.org/2000/svg">
<path d="M12.5 9.94727C14.433 9.94727 16 8.38026 16 6.44727C16 4.51427 14.433 2.94727 12.5 2.94727C10.567 2.94727 9 4.51427 9 6.44727C9 8.38026 10.567 9.94727 12.5 9.94727Z" stroke="white" stroke-width="2" stroke-linecap="round" stroke-linejoin="round"/>
<path d="M2.5 21.4473C2.5 17.029 6.52945 13.4473 11.5 13.4473" stroke="white" stroke-width="2" stroke-linecap="round" stroke-linejoin="round"/>
<path d="M16.425 14.9473C15.3619 14.9473 14.5 15.9516 14.5 17.1905C14.5 19.4336 16.775 21.4729 18 21.9473C19.225 21.4729 21.5 19.4336 21.5 17.1905C21.5 15.9516 20.6382 14.9473 19.575 14.9473C18.924 14.9473 18.3483 15.3239 18 15.9004C17.6517 15.3239 17.0761 14.9473 16.425 14.9473Z" stroke="white" stroke-width="2" stroke-linecap="round" stroke-linejoin="round"/>
</svg>
