<svg width="40" height="40" viewBox="0 0 40 40" fill="none" xmlns="http://www.w3.org/2000/svg">
<path d="M20.0003 15.0002C23.222 15.0002 25.8337 12.3885 25.8337 9.16683C25.8337 5.94517 23.222 3.3335 20.0003 3.3335C16.7787 3.3335 14.167 5.94517 14.167 9.16683C14.167 12.3885 16.7787 15.0002 20.0003 15.0002Z" stroke="white" stroke-width="2" stroke-linecap="round" stroke-linejoin="round"/>
<path d="M3.33301 34.1668C3.33301 26.803 10.0488 20.8335 18.333 20.8335" stroke="white" stroke-width="2" stroke-linecap="round" stroke-linejoin="round"/>
<path d="M26.5413 23.3335C24.7694 23.3335 23.333 25.0073 23.333 27.0722C23.333 30.8107 27.1247 34.2096 29.1663 35.0002C31.208 34.2096 34.9997 30.8107 34.9997 27.0722C34.9997 25.0073 33.5633 23.3335 31.7913 23.3335C30.7063 23.3335 29.7469 23.9612 29.1663 24.922C28.5858 23.9612 27.6264 23.3335 26.5413 23.3335Z" stroke="white" stroke-width="2" stroke-linecap="round" stroke-linejoin="round"/>
</svg>
