<svg width="12" height="12" viewBox="0 0 12 12" fill="none" xmlns="http://www.w3.org/2000/svg">
<path d="M7.6346 5.90237C7.6346 6.82935 6.94684 7.57843 6.09574 7.57843C5.24463 7.57843 4.55687 6.82935 4.55687 5.90237C4.55687 4.97538 5.24463 4.2263 6.09574 4.2263C6.94684 4.2263 7.6346 4.97538 7.6346 5.90237Z" stroke="#292D32" stroke-width="1.5" stroke-linecap="round" stroke-linejoin="round"/>
<path d="M6.09574 9.77417C7.61311 9.77417 9.02732 8.80037 10.0117 7.11494C10.3985 6.45481 10.3985 5.34524 10.0117 4.68511C9.02732 2.99968 7.61311 2.02588 6.09574 2.02588C4.57836 2.02588 3.16416 2.99968 2.1798 4.68511C1.79293 5.34524 1.79293 6.45481 2.1798 7.11494C3.16416 8.80037 4.57836 9.77417 6.09574 9.77417Z" stroke="#292D32" stroke-width="1.5" stroke-linecap="round" stroke-linejoin="round"/>
</svg>
