<svg width="41" height="51" viewBox="0 0 41 51" fill="none" xmlns="http://www.w3.org/2000/svg">
<path d="M10.1777 2.0625C10.1777 1.6481 10.046 1.25067 9.81162 0.957646C9.5772 0.66462 9.25926 0.5 8.92773 0.5C8.59621 0.5 8.27827 0.66462 8.04385 0.957646C7.80943 1.25067 7.67773 1.6481 7.67773 2.0625V3.625H5.17773C3.85165 3.625 2.57988 4.28348 1.6422 5.45558C0.704519 6.62769 0.177734 8.2174 0.177734 9.875V13H40.1777V9.875C40.1777 8.2174 39.651 6.62769 38.7133 5.45558C37.7756 4.28348 36.5038 3.625 35.1777 3.625H32.6777V2.0625C32.6777 1.6481 32.546 1.25067 32.3116 0.957646C32.0772 0.66462 31.7593 0.5 31.4277 0.5C31.0962 0.5 30.7783 0.66462 30.5438 0.957646C30.3094 1.25067 30.1777 1.6481 30.1777 2.0625V3.625H10.1777V2.0625ZM40.1777 44.25V16.125H0.177734V44.25C0.177734 45.9076 0.704519 47.4973 1.6422 48.6694C2.57988 49.8415 3.85165 50.5 5.17773 50.5H35.1777C36.5038 50.5 37.7756 49.8415 38.7133 48.6694C39.651 47.4973 40.1777 45.9076 40.1777 44.25ZM31.4277 22.375H33.9277C34.2593 22.375 34.5772 22.5396 34.8116 22.8326C35.046 23.1257 35.1777 23.5231 35.1777 23.9375V27.0625C35.1777 27.4769 35.046 27.8743 34.8116 28.1674C34.5772 28.4604 34.2593 28.625 33.9277 28.625H31.4277C31.0962 28.625 30.7783 28.4604 30.5438 28.1674C30.3094 27.8743 30.1777 27.4769 30.1777 27.0625V23.9375C30.1777 23.5231 30.3094 23.1257 30.5438 22.8326C30.7783 22.5396 31.0962 22.375 31.4277 22.375Z" fill="#00FF84"/>
</svg>
