<svg width="41" height="59" viewBox="0 0 41 59" fill="none" xmlns="http://www.w3.org/2000/svg">
<path d="M20.37 58.3466C19.697 58.3466 19.12 58.1543 18.6393 57.7697C18.1585 57.3851 17.7979 56.8803 17.5575 56.2553C16.6441 53.563 15.4902 51.0389 14.096 48.6832C12.7499 46.3274 10.8508 43.563 8.39889 40.3899C5.94697 37.2168 3.95177 34.188 2.41331 31.3033C0.922927 28.4187 0.177734 24.9331 0.177734 20.8466C0.177734 15.2216 2.12485 10.462 6.01908 6.56776C9.96139 2.62545 14.745 0.654297 20.37 0.654297C25.995 0.654297 30.7547 2.62545 34.6489 6.56776C38.5912 10.462 40.5624 15.2216 40.5624 20.8466C40.5624 25.2216 39.721 28.8755 38.0383 31.8081C36.4037 34.6928 34.5047 37.5533 32.3412 40.3899C29.745 43.8514 27.7739 46.736 26.4277 49.0437C25.1297 51.3033 24.0479 53.7072 23.1825 56.2553C22.9422 56.9283 22.5575 57.4572 22.0287 57.8418C21.5479 58.1783 20.995 58.3466 20.37 58.3466ZM20.37 28.0581C22.3893 28.0581 24.096 27.361 25.4902 25.9668C26.8845 24.5726 27.5816 22.8658 27.5816 20.8466C27.5816 18.8274 26.8845 17.1206 25.4902 15.7264C24.096 14.3322 22.3893 13.6351 20.37 13.6351C18.3508 13.6351 16.6441 14.3322 15.2499 15.7264C13.8556 17.1206 13.1585 18.8274 13.1585 20.8466C13.1585 22.8658 13.8556 24.5726 15.2499 25.9668C16.6441 27.361 18.3508 28.0581 20.37 28.0581Z" fill="#00FF84"/>
</svg>
