<svg width="50" height="50" viewBox="0 0 50 50" fill="none" xmlns="http://www.w3.org/2000/svg">
<path fill-rule="evenodd" clip-rule="evenodd" d="M7.92982 12.9298C9.80509 11.0551 12.3482 10.002 14.9998 10.002C17.6515 10.002 20.1945 11.0551 22.0698 12.9298L24.9998 15.8573L27.9298 12.9298C28.8523 11.9747 29.9557 11.2129 31.1758 10.6888C32.3958 10.1647 33.708 9.88887 35.0358 9.87733C36.3636 9.86579 37.6804 10.1188 38.9094 10.6216C40.1383 11.1244 41.2548 11.867 42.1938 12.8059C43.1327 13.7448 43.8752 14.8613 44.378 16.0903C44.8808 17.3193 45.1339 18.6361 45.1223 19.9638C45.1108 21.2916 44.8349 22.6038 44.3108 23.8239C43.7867 25.0439 43.0249 26.1474 42.0698 27.0698L24.9998 44.1423L7.92982 27.0698C6.05511 25.1946 5.00195 22.6515 5.00195 19.9998C5.00195 17.3482 6.05511 14.8051 7.92982 12.9298V12.9298Z" fill="#FF0059" stroke="#FF00A2" stroke-width="2" stroke-linejoin="round"/>
</svg>
