<svg width="40" height="40" viewBox="0 0 40 40" fill="none" xmlns="http://www.w3.org/2000/svg">
<path d="M33.3337 31.6668H28.667C27.5624 31.6668 26.667 30.7714 26.667 29.6668V23.6668C26.667 22.5623 27.5624 21.6668 28.667 21.6668H33.3337M33.3337 31.6668V21.6668M33.3337 31.6668V31.6668C33.3337 34.4283 31.0951 36.6668 28.3337 36.6668H18.3337M6.66699 21.6668V29.6668C6.66699 30.7714 7.56242 31.6668 8.66699 31.6668H11.3337C12.4382 31.6668 13.3337 30.7714 13.3337 29.6668V23.6668C13.3337 22.5623 12.4382 21.6668 11.3337 21.6668H6.66699ZM6.66699 21.6668V11.3335C6.66699 6.91522 10.2487 3.3335 14.667 3.3335H25.3337C29.7519 3.3335 33.3337 6.91522 33.3337 11.3335V21.6668" stroke="white" stroke-width="2" stroke-linecap="round" stroke-linejoin="round"/>
</svg>
