<svg width="150" height="150" viewBox="0 0 150 150" fill="none" xmlns="http://www.w3.org/2000/svg">
<mask id="path-1-inside-1_116_3913" fill="white">
<path fill-rule="evenodd" clip-rule="evenodd" d="M75 118.75C99.1625 118.75 118.75 99.1625 118.75 75C118.75 50.8375 99.1625 31.25 75 31.25C50.8375 31.25 31.25 50.8375 31.25 75C31.25 99.1625 50.8375 118.75 75 118.75ZM75 93.75C85.3553 93.75 93.75 85.3553 93.75 75C93.75 64.6447 85.3553 56.25 75 56.25C64.6447 56.25 56.25 64.6447 56.25 75C56.25 85.3553 64.6447 93.75 75 93.75Z"/>
</mask>
<path fill-rule="evenodd" clip-rule="evenodd" d="M75 118.75C99.1625 118.75 118.75 99.1625 118.75 75C118.75 50.8375 99.1625 31.25 75 31.25C50.8375 31.25 31.25 50.8375 31.25 75C31.25 99.1625 50.8375 118.75 75 118.75ZM75 93.75C85.3553 93.75 93.75 85.3553 93.75 75C93.75 64.6447 85.3553 56.25 75 56.25C64.6447 56.25 56.25 64.6447 56.25 75C56.25 85.3553 64.6447 93.75 75 93.75Z" fill="#00FF84"/>
<path d="M113.75 75C113.75 96.401 96.401 113.75 75 113.75V123.75C101.924 123.75 123.75 101.924 123.75 75H113.75ZM75 36.25C96.401 36.25 113.75 53.599 113.75 75H123.75C123.75 48.0761 101.924 26.25 75 26.25V36.25ZM36.25 75C36.25 53.599 53.599 36.25 75 36.25V26.25C48.0761 26.25 26.25 48.0761 26.25 75H36.25ZM75 113.75C53.599 113.75 36.25 96.401 36.25 75H26.25C26.25 101.924 48.0761 123.75 75 123.75V113.75ZM88.75 75C88.75 82.5939 82.5939 88.75 75 88.75V98.75C88.1168 98.75 98.75 88.1168 98.75 75H88.75ZM75 61.25C82.5939 61.25 88.75 67.4061 88.75 75H98.75C98.75 61.8832 88.1168 51.25 75 51.25V61.25ZM61.25 75C61.25 67.4061 67.4061 61.25 75 61.25V51.25C61.8832 51.25 51.25 61.8832 51.25 75H61.25ZM75 88.75C67.4061 88.75 61.25 82.5939 61.25 75H51.25C51.25 88.1168 61.8832 98.75 75 98.75V88.75Z" fill="#121212" mask="url(#path-1-inside-1_116_3913)"/>
<path d="M75 31.25V18.75" stroke="#121212" stroke-width="5" stroke-linecap="round"/>
<path d="M118.75 75L131.25 75" stroke="#121212" stroke-width="5" stroke-linecap="round"/>
<path d="M75 131.25L75 118.75" stroke="#121212" stroke-width="5" stroke-linecap="round"/>
<path d="M18.75 75H31.25" stroke="#121212" stroke-width="5" stroke-linecap="round"/>
</svg>
